<svg xmlns="http://www.w3.org/2000/svg" xmlns:xlink="http://www.w3.org/1999/xlink" width="500" zoomAndPan="magnify" viewBox="0 0 375 374.999991" height="500" preserveAspectRatio="xMidYMid meet" version="1.0"><defs><g/><clipPath id="8bbdd6c261"><path d="M 13.042969 261.695312 L 54.386719 261.695312 L 54.386719 365.152344 L 13.042969 365.152344 Z M 13.042969 261.695312 " clip-rule="nonzero"/></clipPath><clipPath id="a7ae69aab3"><path d="M 89.679688 210.597656 L 131.355469 210.597656 L 131.355469 365.15625 L 89.679688 365.15625 Z M 89.679688 210.597656 " clip-rule="nonzero"/></clipPath><clipPath id="fa0947035e"><path d="M 166.316406 158.238281 L 207.992188 158.238281 L 207.992188 365.152344 L 166.316406 365.152344 Z M 166.316406 158.238281 " clip-rule="nonzero"/></clipPath><clipPath id="fa887ceaef"><path d="M 243.128906 261.695312 L 284.800781 261.695312 L 284.800781 365.152344 L 243.128906 365.152344 Z M 243.128906 261.695312 " clip-rule="nonzero"/></clipPath><clipPath id="243dc4a7b9"><path d="M 319.9375 261.695312 L 361.613281 261.695312 L 361.613281 365.152344 L 319.9375 365.152344 Z M 319.9375 261.695312 " clip-rule="nonzero"/></clipPath><clipPath id="f41a25e20f"><path d="M 12 48 L 208 48 L 208 192 L 12 192 Z M 12 48 " clip-rule="nonzero"/></clipPath><clipPath id="0f2f21e668"><path d="M 48.820312 219.449219 L -6.75 140 L 179.460938 9.757812 L 235.03125 89.210938 Z M 48.820312 219.449219 " clip-rule="nonzero"/></clipPath><clipPath id="d8ea3f7eeb"><path d="M 207.140625 49.558594 L 179.523438 128.035156 L 160.148438 100.332031 L 29.445312 191.75 L 12.625 167.699219 L 143.328125 76.28125 L 123.953125 48.582031 Z M 207.140625 49.558594 " clip-rule="nonzero"/></clipPath></defs><g clip-path="url(#8bbdd6c261)"><path fill="#ff6f59" d="M 13.042969 261.695312 L 54.386719 261.695312 L 54.386719 365.21875 L 13.042969 365.21875 Z M 13.042969 261.695312 " fill-opacity="1" fill-rule="nonzero"/></g><g clip-path="url(#a7ae69aab3)"><path fill="#ff6f59" d="M 89.679688 210.597656 L 131.355469 210.597656 L 131.355469 365.085938 L 89.679688 365.085938 Z M 89.679688 210.597656 " fill-opacity="1" fill-rule="nonzero"/></g><g clip-path="url(#fa0947035e)"><path fill="#ff6f59" d="M 166.316406 158.238281 L 207.992188 158.238281 L 207.992188 365.144531 L 166.316406 365.144531 Z M 166.316406 158.238281 " fill-opacity="1" fill-rule="nonzero"/></g><g clip-path="url(#fa887ceaef)"><path fill="#ff6f59" d="M 243.128906 261.695312 L 284.800781 261.695312 L 284.800781 365.230469 L 243.128906 365.230469 Z M 243.128906 261.695312 " fill-opacity="1" fill-rule="nonzero"/></g><g clip-path="url(#243dc4a7b9)"><path fill="#ff6f59" d="M 319.9375 261.695312 L 361.613281 261.695312 L 361.613281 365.230469 L 319.9375 365.230469 Z M 319.9375 261.695312 " fill-opacity="1" fill-rule="nonzero"/></g><g clip-path="url(#f41a25e20f)"><g clip-path="url(#0f2f21e668)"><g clip-path="url(#d8ea3f7eeb)"><path fill="#ff6f59" d="M 48.820312 219.449219 L -6.75 140 L 179.460938 9.757812 L 235.03125 89.210938 Z M 48.820312 219.449219 " fill-opacity="1" fill-rule="nonzero"/></g></g></g><g fill="#ff6f59" fill-opacity="1"><g transform="translate(243.19588, 208.843384)"><g><path d="M 110.890625 -40.609375 C 110.890625 -28.734375 107.398438 -19.070312 100.421875 -11.625 C 93.453125 -4.1875 83.25 0.1875 69.8125 1.5 L 69.8125 21.671875 L 48.796875 21.671875 L 48.796875 1.21875 C 38.117188 -0.09375 29.117188 -3.007812 21.796875 -7.53125 C 14.484375 -12.0625 9.070312 -17.367188 5.5625 -23.453125 L 19.6875 -40.703125 L 22.046875 -40.703125 C 25.179688 -36.117188 28.992188 -32.191406 33.484375 -28.921875 C 37.984375 -25.660156 43.085938 -23.335938 48.796875 -21.953125 L 48.796875 -61.234375 L 46.453125 -61.8125 C 34.015625 -64.632812 24.78125 -69.1875 18.75 -75.46875 C 12.71875 -81.75 9.703125 -90.101562 9.703125 -100.53125 C 9.703125 -107.4375 11.222656 -113.601562 14.265625 -119.03125 C 17.316406 -124.46875 21.78125 -128.910156 27.65625 -132.359375 C 33.53125 -135.816406 40.578125 -138.050781 48.796875 -139.0625 L 48.796875 -159.40625 L 69.8125 -159.40625 L 69.8125 -139.25 C 77.664062 -138.4375 84.523438 -136.675781 90.390625 -133.96875 C 96.265625 -131.269531 101.367188 -127.503906 105.703125 -122.671875 L 92.984375 -105.234375 L 90.640625 -105.234375 C 85.046875 -111.015625 78.101562 -114.753906 69.8125 -116.453125 L 69.8125 -81.125 L 72.734375 -80.453125 C 86.234375 -77.566406 95.96875 -72.890625 101.9375 -66.421875 C 107.90625 -59.953125 110.890625 -51.347656 110.890625 -40.609375 Z M 35.046875 -101.5625 C 35.046875 -97.789062 36.082031 -94.664062 38.15625 -92.1875 C 40.226562 -89.707031 43.773438 -87.648438 48.796875 -86.015625 L 48.796875 -116.265625 C 44.210938 -115.191406 40.773438 -113.367188 38.484375 -110.796875 C 36.191406 -108.222656 35.046875 -105.144531 35.046875 -101.5625 Z M 69.8125 -21.390625 C 74.707031 -22.453125 78.363281 -24.519531 80.78125 -27.59375 C 83.207031 -30.675781 84.421875 -34.414062 84.421875 -38.8125 C 84.421875 -43.082031 83.320312 -46.597656 81.125 -49.359375 C 78.925781 -52.128906 75.15625 -54.394531 69.8125 -56.15625 Z M 69.8125 -21.390625 "/></g></g></g></svg>